<svg xmlns="http://www.w3.org/2000/svg" width="155" height="59"><rect id="backgroundrect" width="100%" height="100%" fill="none"/><defs><style>.cls-1{fill:#ffffff}</style></defs><g class="currentLayer"><path d="M38.62 28.17A15.12 15.12 0 0 0 30.96.01c-.45 0-.89 0-1.33.07s-1-.06-1.63-.07H0v58.66h33.84a15.61 15.61 0 0 0 4.77-30.47zM17.85 11.74h4.38a8 8 0 0 1 5 1.43 5.27 5.27 0 0 1 2 4.33 5.29 5.29 0 0 1-2 4.34 7.88 7.88 0 0 1-5 1.42h-4.38zm11.17 33a10.15 10.15 0 0 1-6 1.57h-5.17V33.62H23a10.15 10.15 0 0 1 6 1.57A5.68 5.68 0 0 1 31.32 40a5.68 5.68 0 0 1-2.3 4.78z" class="cls-1" id="svg_1"/><path d="M120.11 42.77H96.92V.01H77.67v58.66H99.6l16.28.01h4.23V42.77zM71.53.01H52.28v58.67l19.25-.01V.01z" class="cls-1" id="svg_2"/><path d="M126.26 0h-23.2v36.62h17V17.56a12.83 12.83 0 1 1 6.15 24.91v16.22a29.35 29.35 0 0 0 0-58.69z" class="cls-1" id="svg_3"/></g></svg>