<svg xmlns="http://www.w3.org/2000/svg" id="Layer_1" viewBox="0 0 60 60">
  <path fill="#a3664b" d="M32.48 13.44v35.27h5.8v-29.5zM21.18 23.31v25.4h5.8V29.08zM26.98 15.63v6.87l-5.8-5.77V9.86z" />
  <path fill="#a3664b" d="M29.76 0c-3.22 0-6.32.51-9.23 1.44l4.19 4.17c1.63-.33 3.31-.51 5.04-.51 13.85 0 25.11 11.2 25.11 24.96 0 12.87-9.84 23.49-22.43 24.82V60C47.86 58.65 60 45.74 60 30.06 60 13.49 46.43 0 29.76 0M4.66 29.37c.26-9.64 6.05-17.93 14.32-21.86l-3.8-3.78C7.35 8.04 1.63 15.69 0 24.74l4.66 4.63zM4.67 30.73L0 35.37C2.37 48.55 13.41 58.77 27.02 60v-5.12C14.68 53.54 5 43.27 4.67 30.73" />
</svg>