<svg xmlns="http://www.w3.org/2000/svg" viewBox="0 0 165 60">
  <path fill="#606726" d="M69.64 14.68c0-4.5 1.73-8.07 5.18-10.71C78.27 1.32 83.19 0 89.59 0c4.79 0 8.82.54 12.07 1.62v12.12c-3.42-1.31-6.85-1.96-10.27-1.96s-5.74.4-6.94 1.2c-1.2.8-1.8 1.88-1.8 3.24V44.3c0 1.37.43 2.4 1.28 3.12.86.71 2.13 1.07 3.81 1.07s2.98-.23 3.9-.68V27.82h12.5v28.59C99.69 58.81 94.41 60 88.3 60c-6.11 0-10.75-1.25-13.91-3.76-3.17-2.5-4.75-6.03-4.75-10.58V14.68zM0 .47h29.37v11.18H13.01v14.59h15.07v11.44H13.01v21.94H0V.47zM34.5.47h30.06v11.09H47.35v12.55h14.9v11.1h-14.9v13.31h17.21v11.1H34.5V.47zM140.51 59.62h-12.84V.47h12.84V27.1L150.62.47H165l-11.9 28.59L165 59.62h-14.3l-10.19-28.25v28.25z"/>
  <path fill="#fff" fill-rule="evenodd" clip-rule="evenodd" d="M109.42 59.52V.38h13.07v13.18h-8.07l8.07 7.49v38.47h-13.07z"/>
</svg>