<svg xmlns="http://www.w3.org/2000/svg" viewBox="0 0 256 60">
  <path fill="#fff" d="M96.95 50.64v9.2H59.6V.24h37.35v9.2H68.48v13.44h24.77v9.2H68.48v18.56h28.47zM135.28 59.76L120.23 37.2h-9.49V60h-8.95V0l26.62.08c2.47 0 4.78.49 6.94 1.48s4.05 2.32 5.67 4c1.62 1.68 2.89 3.67 3.82 5.96.93 2.29 1.39 4.72 1.39 7.28 0 2.35-.39 4.55-1.16 6.6-.77 2.05-1.85 3.89-3.24 5.52a18.507 18.507 0 0 1-4.86 4.04 16.843 16.843 0 0 1-6.02 2.08l15.2 22.72h-10.87zM128.41 28c1.23 0 2.38-.24 3.43-.72a8.842 8.842 0 0 0 2.78-2c.8-.85 1.43-1.83 1.89-2.92.46-1.09.69-2.28.69-3.56 0-1.28-.23-2.49-.69-3.64a9.206 9.206 0 0 0-1.93-3 9.781 9.781 0 0 0-2.82-2.04c-1.05-.51-2.2-.76-3.43-.76h-17.59v18.56l17.67.08zM255.38.16v7.76l-31.95 42.56h31.95v9.28H210.7v-7.52l32.02-42.8h-31.86V.16h44.52zM41.9 30.84h-9.88L39.51 13 44.83.04h9.88L41.9 30.84zM27.32 42.2h9.88l-7.41 17.68h-4.94L0 .04h9.8l9.26 22.32 8.26 19.84zM181.11.28l24.77 59.68h-9.87l-5.4-12.88-12.04-29.28-8.34 19.92-9.25 22.24h-9.73L176.1.28h5.01z" />
</svg>