<svg xmlns="http://www.w3.org/2000/svg" id="Layer_1" viewBox="0 0 108 60">
  <style>
    .st0{fill-rule:evenodd;clip-rule:evenodd;fill:#fff}
  </style>
  <g id="layer1" transform="translate(0 -175.816)">
    <g id="g18" transform="matrix(.35278 0 0 -.35278 1.043 211.037)">
      <g id="g22" transform="matrix(1 0 0 1 -18.676 -348.865)">
        <g id="g24">
          <g id="g30" transform="translate(525.962 315.459)">
            <path id="path32" d="M-215.38 56.25l-2.69-1.01c-4.87 1.85-10.08 3.53-17.97 3.53-15.62 0-25.36-6.38-29.39-9.41-24.52-19.48-29.06-50.05-29.06-57.78 0-19.15 13.77-28.24 27.71-28.24 13.1 0 22 10.27 28.89 19.68-.67-3.53-1.18-7.39-1.34-10.25-.34-4.2 4.7-7.73 10.58-7.56 5.71.17 11.25 3.19 11.25 7.39 0 4.87 1.34 16.46 3.7 30.23l3.02 16.46c2.86 15.45 4.7 24.02 5.88 29.56.85 4.54-4.53 9.24-10.58 7.4m-12.76-10.92c-3.02 1.01-6.72 2.18-10.75 2.18-25.53 0-32.25-35.94-32.25-49.72 0-11.42 3.19-19.65 11.59-19.65 4.87 0 11.09 2.69 16.8 11.09 4.53 6.21 7.39 15.95 10.24 32.75l4.37 23.35zm-76.09 13.44h.5c.84 0 1.68.17 2.52.17 2.18 0 4.2 0 5.88.17 5.04.5 9.07-2.86 8.4-6.21-1.01-3.7-5.88-6.05-11.42-6.05-3.19.17-5.88.17-8.23.17-.17-.84-.34-1.34-.5-2.35-.84-4.03-1.85-9.07-2.86-14.11-.84-4.54-1.85-9.57-2.69-14.11-.67-3.86-1.51-7.39-2.02-9.91-1.85-8.73-3.19-16.29-3.19-21.16 0-6.21 2.69-8.73 6.38-8.73 1.01 0 2.18.17 3.53.5 4.54.67 8.9-2.18 8.4-5.04-1.01-4.2-5.37-7.92-11.42-8.76-1.18-.17-3.19-.17-4.37-.17-11.25 0-18.48 3.22-20.99 6.75-2.52 3.7-3.86 6.72-3.86 10.08 0 3.19.67 6.89 1.51 11.59l10.58 55.76c-3.36.67-6.05 3.02-5.54 5.71.5 3.36 3.7 6.05 8.06 6.05.84 4.2 1.18 7.73 1.51 11.09.5 5.37 5.54 10.08 12.77 11.76 5.88 1.18 12.09-2.02 10.92-6.38-1.68-5.57-2.69-9.6-3.87-16.82m-49.04 0c1.18 7.22 2.18 11.25 3.86 16.8 1.17 4.37-5.04 7.56-10.92 6.38-7.22-1.68-12.26-6.38-12.76-11.76-.34-3.36-.67-6.89-1.51-11.09-4.37 0-7.56-2.69-8.06-6.05-.5-2.69 2.18-5.04 5.54-5.71L-387.7-8.42c-.84-4.7-1.51-8.4-1.51-11.59 0-3.36 1.34-6.38 3.86-10.08 2.52-3.53 9.74-6.75 20.99-6.75 1.17 0 3.19 0 4.37.17 6.05.84 10.41 4.56 11.42 8.76.5 2.85-3.86 5.71-8.4 5.04-1.34-.34-2.52-.5-3.53-.5-3.7 0-6.38 2.52-6.38 8.73 0 4.87 1.34 12.43 3.19 21.16.5 2.52 1.34 6.05 2.02 9.91.84 4.53 1.85 9.57 2.69 14.11 1.01 5.04 2.02 10.08 2.86 14.11.17 1.01.34 1.51.5 2.35 2.35 0 5.04 0 8.23-.17 5.54 0 10.41 2.35 11.42 6.05.67 3.36-3.36 6.72-8.4 6.21-1.68-.17-3.7-.17-5.88-.17-.84 0-1.68-.17-2.52-.17l-.5.02zm-48.88-52.32l4.87 27.15c1.01 5.54 1.85 9.57 2.52 12.6 0 .84.17 1.99.34 2.66.34 4.37-4.53 8.57-10.24 7.39-1.85-.34-3.53-.67-5.88-1.01-6.38-.34-8.23-5.21-8.06-9.21.17-6.05-1.34-16.94-5.38-39.08l-2.85-16.43c-1.17-6.86-2.35-11.56-3.19-15.09 0-.34-.17-.67-.17-.84-.5-4.17 3.7-8.87 9.07-8.7h1.34c6.38 0 12.43 3.36 12.77 8.2.5 5.71 1.84 15.59 4.86 32.36m-55.59 20.46c3.53 7.73 6.38 15.09 7.89 20.63 1.68 5.35 7.89 8.87 15.28 8.87 5.54 0 9.91-4.53 7.72-8.03-2.18-3.53-4.2-6.89-6.72-11.23-8.23-14.58-9.24-16.43-22-42.41l-5.04-10.08c-2.69-5.01-4.2-8.2-5.54-11.06-2.52-5.04-9.57-8.06-16.96-8.06-7.22 0-13.27 4.03-13.94 9.41-.5 4.37-1.18 8.57-1.85 12.91-.67 4.54-1.51 9.41-2.35 14.08-.84 4.7-1.51 9.21-2.35 13.75l-.67 3.86c-1.01 6.19-1.34 7.87-3.36 17.44-.17.87-2.52 11.39-2.35 11.23-1.51 4.34 3.7 8.2 9.41 8.03h4.03c6.72.17 11.76-4.03 11.93-9.04.17-3.36.5-8.23 1.34-15.26 2.86-25.14 2.86-25.3 6.38-44.26l19.15 39.22z" class="st0"/>
          </g>
          <g id="g78" transform="translate(139.05 374.596)">
            <path id="path80" d="M-52.06 31.28c-.18 2.57.04 5.77 1.35 9.23-.54 2.21-1.23 3.03-1.61 3.32-.67-4.26-.55-8.5.26-12.55" class="st0"/>
          </g>
          <g id="g82" transform="translate(140.706 368.068)">
            <path id="path84" d="M-52.76 34.04v.05c-.06.2-.13.41-.19.61.07-.22.12-.44.19-.66" class="st0"/>
          </g>
          <g id="g86" transform="translate(138.594 396.32)">
            <path id="path88" d="M-51.87 22.11c.01 0 .01 0 0 0 .01.01.01.02.01.04h-.01v-.04z" class="st0"/>
          </g>
          <g id="g90" transform="translate(139.184 373.907)">
            <path id="path92" d="M-52.11 31.57c-.03.13-.05.27-.08.4v-.08c.02-.1.05-.21.08-.32" class="st0"/>
          </g>
          <g id="g94" transform="translate(158.282 356.3)">
            <path id="path96" d="M-60.18 39.01c-.4-.28-.5-.84-.22-1.26.28-.42.83-.53 1.23-.25s.5.85.22 1.26c-.28.41-.83.53-1.23.25" class="st0"/>
          </g>
          <g id="g98" transform="translate(165.432 343.065)">
            <path id="path100" d="M-63.19 44.59c-.4-.28-.5-.84-.22-1.26.28-.42.83-.53 1.23-.25s.5.85.22 1.26c-.29.42-.84.53-1.23.25" class="st0"/>
          </g>
          <g id="g102" transform="translate(158.581 348.253)">
            <path id="path104" d="M-60.3 42.4c-.32-.22-.4-.67-.18-1.01.22-.34.66-.42.98-.2.32.22.4.67.18 1.01-.22.34-.66.43-.98.2" class="st0"/>
          </g>
          <g id="g106" transform="translate(158.65 378.147)">
            <path id="path108" d="M-60.33 29.78c.3-.45.89-.56 1.31-.27.43.3.53.9.24 1.34-.3.45-.88.56-1.31.27-.43-.29-.54-.89-.24-1.34" class="st0"/>
          </g>
          <g id="g110" transform="translate(164.875 357.81)">
            <path id="path112" d="M-62.96 38.37c-.29.44-.88.56-1.31.27-.43-.3-.53-.9-.24-1.34.3-.45.89-.56 1.31-.27.43.29.54.89.24 1.34" class="st0"/>
          </g>
          <g id="g114" transform="translate(239.9 342.88)">
            <path id="path116" d="M-94.63 44.67c-.96.21-1.89-.4-2.1-1.38a1.77 1.77 0 0 1-2.02-1.45c-.13-.69.13-1.36.62-1.79 1.67 1.1 3.24 2.33 4.71 3.69a1.8 1.8 0 0 1-1.21.93" class="st0"/>
          </g>
          <g id="g118" transform="translate(251.832 363.451)">
            <path id="path120" d="M-99.66 35.99c.91.63 1.94.97 2.97 1.03.16 1.01-.05 2.1-.66 3.02-1.26 1.89-3.76 2.4-5.57 1.13-1.82-1.26-2.26-3.82-1-5.71.58-.87 1.43-1.44 2.35-1.69.42.86 1.07 1.63 1.91 2.22" class="st0"/>
          </g>
          <g id="g122" transform="translate(249.662 349.827)">
            <path id="path124" d="M-98.75 41.74c.24.33.48.67.72 1.01-.76 1.88-.18 4.1 1.51 5.28.56.39 1.18.62 1.81.71.17.38.32.76.48 1.15a5.152 5.152 0 0 1-2.91-.93c-2.29-1.6-2.96-4.75-1.61-7.22" class="st0"/>
          </g>
          <g id="g126" transform="translate(251.858 352.998)">
            <path id="path128" d="M-99.67 40.4c.87 1.35 1.66 2.77 2.36 4.25-.33-.1-.66-.25-.96-.46-1.23-.86-1.74-2.38-1.4-3.79" class="st0"/>
          </g>
          <g id="g130" transform="translate(195.284 375.61)">
            <path id="path132" d="M-75.79 30.86c-2.19-1.53-2.73-4.61-1.2-6.89 1.52-2.28 4.53-2.89 6.71-1.36 2.19 1.52 2.72 4.61 1.2 6.88-1.52 2.28-4.53 2.89-6.71 1.37" class="st0"/>
          </g>
          <g id="g134" transform="translate(249.82 401.288)">
            <path id="path136" d="M-98.81 20.02c-1.27 2.04-1.36 4.72 0 6.85.44.69 1 1.25 1.62 1.69-2.02 1.39-4.71 1.49-6.81.02a6.078 6.078 0 0 1-2.08-2.59c-3.7 1.25-5.19 4.6-5.19 4.6 1.73.57 4.1-1.11 4.1-1.11-1.26 1.89-2.72 3.13-4.15 3.94-1.43-.15-2.94-.02-4.44.59 1.59-1.22 3.55-3.35 4.37-6.75 2.21-.95 4.34-1.26 5.25-1.36a6.45 6.45 0 0 1 .51-5.85c.05.04.1.08.15.11 2.1 1.35 4.71 1.21 6.67-.14" class="st0"/>
          </g>
          <g id="g138" transform="translate(255.526 413.117)">
            <path id="path140" d="M-101.22 15.02c.98-1.47 1.28-3.21.97-4.82a6.14 6.14 0 0 0-1.08-2.45c-.71.9-1.97 1.13-2.91.47a1.07 1.07 0 0 1-.16-.14c-.04.03-.08.07-.12.1.03-.04.07-.08.1-.12-.73-.65-.94-1.73-.51-2.63-.04-.03-.09-.04-.13-.07l.15.03c.04-.09.08-.18.14-.26.68-1.03 2.03-1.3 3.02-.61.6.42.92 1.1.92 1.81.92-.14 1.8-.47 2.57-.99.08.01.15.03.23.05-.29 1.82-.72 3.62-1.28 5.36-.72 2.24-1.67 4.39-2.8 6.44-.27-.13-.53-.28-.78-.46.63-.45 1.2-1.01 1.67-1.71" class="st0"/>
          </g>
          <g id="g142" transform="translate(261.042 396.437)">
            <path id="path144" d="M-103.55 22.06c-.08-.02-.15-.03-.23-.05.09-.06.18-.13.27-.19l-.04.24z" class="st0"/>
          </g>
          <g id="g146" transform="translate(261.21 385.173)">
            <path id="path148" d="M-103.62 26.82c-1.69.37-3.07 1.43-3.94 2.82-.3-1.61-1.21-3.08-2.66-4.01-.68-.44-1.41-.72-2.16-.85 1.31-2.1 3.76-3.32 6.27-2.86.95.17 1.81.56 2.53 1.12.16 1.25.26 2.49.3 3.73-.12 0-.23.03-.34.05" class="st0"/>
          </g>
          <g id="g150" transform="translate(248.882 396.395)">
            <path id="path152" d="M-98.42 22.08c-2.3-.42-4.75.56-6.17 2.68a.95.95 0 0 0-.1.17c-2.7-1.87-3.44-5.65-1.64-8.53 1.39-2.23 3.91-3.28 6.27-2.86-.41.67-.72 1.42-.87 2.24-.47 2.53.59 4.96 2.51 6.3" class="st0"/>
          </g>
          <g id="g154" transform="translate(164.17 396.25)">
            <path id="path156" d="M-62.66 22.14c-.4-.28-.5-.84-.22-1.26.28-.41.83-.53 1.23-.25s.5.84.22 1.26c-.28.42-.83.53-1.23.25" class="st0"/>
          </g>
          <g id="g158" transform="translate(162.107 390.782)">
            <path id="path160" d="M-61.79 24.45c-.22.33-.66.42-.98.2-.32-.22-.4-.68-.18-1.01.22-.33.66-.42.98-.2.32.22.4.68.18 1.01" class="st0"/>
          </g>
          <g id="g162" transform="translate(229.727 403.895)">
            <path id="path164" d="M-90.33 18.92c-.43-.3-.53-.9-.24-1.34.3-.45.88-.57 1.31-.27.43.3.53.9.24 1.34-.3.45-.89.56-1.31.27" class="st0"/>
          </g>
          <g id="g166" transform="translate(186.112 416.381)">
            <path id="path168" d="M-71.92 13.65c-.43-.3-.53-.9-.24-1.34.3-.44.89-.56 1.31-.27.43.3.53.9.23 1.35-.29.43-.87.55-1.3.26" class="st0"/>
          </g>
          <g id="g170" transform="translate(160.964 398.285)">
            <path id="path172" d="M-61.31 21.28c.43.3.53.9.24 1.35-.3.44-.89.56-1.31.27-.42-.3-.53-.9-.23-1.34.29-.45.88-.57 1.3-.28" class="st0"/>
          </g>
          <g id="g174" transform="translate(167.439 400.418)">
            <path id="path176" d="M-64.04 20.38c-.43-.3-.53-.9-.24-1.34.3-.45.89-.56 1.31-.27.43.3.53.9.24 1.34-.3.45-.89.57-1.31.27" class="st0"/>
          </g>
          <g id="g178" transform="translate(177.264 405.627)">
            <path id="path180" d="M-68.19 18.19a.728.728 0 0 1-.18-1c.22-.33.66-.42.98-.2.32.22.4.67.18 1.01-.22.32-.66.41-.98.19" class="st0"/>
          </g>
          <g id="g182" transform="translate(191.796 411.414)">
            <path id="path184" d="M-74.32 15.74c-.32-.22-.4-.67-.18-1.01.22-.33.66-.42.98-.2.32.22.4.67.18 1-.22.35-.66.44-.98.21" class="st0"/>
          </g>
          <g id="g186" transform="translate(165.707 438.428)">
            <path id="path188" d="M-63.31 4.34l-.01-.01.07-.04-.06.05z" class="st0"/>
          </g>
          <g id="g190" transform="translate(169.098 439.695)">
            <path id="path192" d="M-64.74 3.81c.06.21.13.41.21.6-.06-.03-.11-.06-.17-.1-.01-.16-.02-.33-.04-.5" class="st0"/>
          </g>
          <g id="g194" transform="translate(167.786 439.73)">
            <path id="path196" d="M-64.19 3.79z" class="st0"/>
          </g>
          <g id="g198" transform="translate(165.34 437.098)">
            <path id="path200" d="M-63.16 4.9c-.22.06-.43.12-.63.2-.1-.07-.21-.14-.31-.21.29.03.61.03.94.01" class="st0"/>
          </g>
          <g id="g202" transform="translate(166.757 439.112)">
            <path id="path204" d="M-63.75 4.05c.2.12.4.24.59.36v.01c-.2-.12-.4-.24-.59-.37" class="st0"/>
          </g>
          <g id="g206" transform="translate(165.694 438.439)">
            <path id="path208" d="M-63.3 4.34c.08.04.15.1.23.14-.08-.05-.16-.1-.23-.14" class="st0"/>
          </g>
          <g id="g210" transform="translate(163.7 437.073)">
            <path id="path212" d="M-62.46 4.91c-.22-.16-.45-.32-.67-.49v-.01c.23.17.45.34.68.51 0-.01-.01-.01-.01-.01" class="st0"/>
          </g>
          <g id="g214" transform="translate(165.668 438.422)">
            <path id="path216" d="M-63.29 4.34c-.28-.18-.56-.37-.83-.57h.01c.27.19.55.38.82.57z" class="st0"/>
          </g>
          <g id="g218" transform="translate(167.784 439.76)">
            <path id="path220" d="M-64.19 3.78v-.02c.27.16.53.33.8.48-.27-.15-.53-.3-.8-.46" class="st0"/>
          </g>
          <g id="g222" transform="translate(169.456 440.735)">
            <path id="path224" d="M-64.89 3.37c.33.18.66.35.99.52v.02l-.99-.54" class="st0"/>
          </g>
          <g id="g226" transform="translate(169.47 434.688)">
            <path id="path228" d="M-64.9 5.92c.61.43.77 1.3.34 1.94-.43.64-1.27.81-1.89.38-.61-.43-.77-1.3-.34-1.94.43-.64 1.28-.81 1.89-.38" class="st0"/>
          </g>
          <g id="g230" transform="translate(171.16 429.997)">
            <path id="path232" d="M-65.61 7.9h-.01c-.03-.01-.06-.01-.09-.01l-.12.42c.07-.15.14-.28.22-.41m-8.22-6.79c.54-.37 1.16-.64 1.83-.78.23-.05.46-.05.68-.07-.76-.8-1.32-2.02-.55-3.7 0 0 2.53.68 2.38 3.81.69.16 1.34.45 1.92.84-.27-1.23-.27-3.13 1.86-4.1 0 0 1.56 2.44-.98 4.81.88.87 1.53 2.01 1.76 3.34.08.47.12.94.12 1.4.56-.71 1.1-1.08 1.51-.65.59.62-.26 1.93-1.3 3.14 1.4-1.12 2.89-1.96 3.2-1.04.28.82-1 1.67-2.43 2.34 1.71-.44 3.39-.58 3.31.4-.07.88-1.57 1.11-3.13 1.12 1.72.32 3.3.9 2.84 1.76-.41.77-1.86.36-3.28-.29 1.38.99 2.55 2.14 1.93 2.76-.83-.33-1.66-.69-2.46-1.08-.15-.16-.31-.33-.46-.51.08.13.15.26.22.4-.25-.12-.49-.26-.74-.39.06-.33-.19-.9-.51-1.46.52.61 1.1 1.11 1.45.84.39-.31-.23-.91-.95-1.44.71.33 1.45.54 1.66.15.23-.44-.57-.74-1.44-.9.79-.01 1.55-.13 1.59-.57.04-.5-.81-.43-1.68-.21.73-.34 1.38-.77 1.23-1.19-.16-.47-.92-.04-1.63.53.53-.61.96-1.28.66-1.59-.33-.36-.86.35-1.29 1.16.24-.78.37-1.56-.03-1.72-.45-.18-.65.68-.72 1.59-.09-.81-.28-1.57-.71-1.55-.48.03-.32.89-.02 1.75-.4-.7-.88-1.3-1.27-1.1-.44.23.05.95.67 1.59-.65-.46-1.33-.81-1.61-.46-.31.39.42.83 1.25 1.16-.78-.15-1.54-.17-1.66.26-.37-.28-.75-.56-1.11-.85.34.03.7.09 1.06.15-1.62-.64-3.07-1.51-2.46-2.28.54-.68 1.89 0 3.16.9-1.22-1.27-2.18-2.68-1.32-3.13.77-.4 1.72.8 2.5 2.17-.59-1.69-.9-3.39.05-3.44.85-.05 1.23 1.45 1.4 3.05.12-1.6.45-3.11 1.15-3.18-.73-2.44-3.13-3.97-5.64-3.46-2.12.43-3.53 2.55-3.15 4.71.05.3-.14.59-.44.65a.517.517 0 0 1-.42-.1l-.14-.16c-.03-.05-.05-.12-.07-.18a5.27 5.27 0 0 1 1.45-4.61c-1.03.08-2.54-.15-3.02-2.07.02.04 2.24-1.02 3.78 1.48" class="st0"/>
          </g>
          <g id="g234" transform="translate(205.234 447.878)">
            <path id="path236" d="M-79.99.35c.14.09.27.2.39.3-2.31.23-4.6.23-6.85.02 1.82-1.52 4.44-1.72 6.46-.32" class="st0"/>
          </g>
          <g id="g238" transform="translate(214.938 432.435)">
            <path id="path240" d="M-84.09 6.87c-.42 1.85-.57 4.49.64 7.34-.18.33-.37.65-.56.95l-.47.12-.92.21c.53-2.33.02-4.2.02-4.2-1.7.72-2.48 3.57-2.48 3.57-.16-1.63-.01-3.08.3-4.34 1.36-.87 2.61-2.04 3.47-3.65" class="st0"/>
          </g>
          <g id="g242" transform="translate(233.2 434.168)">
            <path id="path244" d="M-91.8 6.14c.51.65.94 1.29 1.3 1.89-.24.17-.48.33-.72.49-2-1.47-4.05-1.63-4.05-1.63.01 1.25 1.02 2.42 1.7 3.07-.13.07-.26.14-.4.22-1.35-.48-2.45-1.15-3.36-1.89-.33-1.36-.9-2.7-1.86-3.87 1.64 1.07 4.15 2.1 7.39 1.72" class="st0"/>
          </g>
          <g id="g246" transform="translate(215.853 424.592)">
            <path id="path248" d="M-84.48 10.18c.38.02.75.13 1.09.37.98.68 1.22 2.07.54 3.09-.68 1.02-2.03 1.3-3.02.61-.16-.11-.28-.24-.4-.38-.86 1.1-1.73 2.57-2.21 4.48-3.62 2.3-8.03 2.38-8.03 2.38 4.03-1.01 5.73-4.56 5.73-4.56-1.71-.63-4.13.99-4.13.99.64-.9 1.32-1.64 2.03-2.26 2.06.24 4.38.05 6.48-1.18-.32-.46-.45-1.03-.37-1.59-1.71.22-3.99.9-6.11 2.77-3.25-.37-5.84-1.78-5.84-1.78 3.98 1.08 7.11-1.23 7.11-1.23-1.2-1.4-4.05-1.16-4.05-1.16 1.43-.71 2.77-1.07 4.02-1.21 1.3 1.22 2.91 2.2 4.88 2.53.05-.31.17-.61.35-.88.42-.63 1.1-.98 1.79-.99-.66-1.72-2.07-4.23-5-5.88-.77-3.43-.23-6.65-.23-6.65.22 4.24 3.31 6.5 3.31 6.5.92-1.65-.18-4.34-.18-4.34 1.73 1.81 2.61 3.73 3.02 5.49-.63 1.45-.98 3.09-.78 4.88" class="st0"/>
          </g>
          <g id="g250" transform="translate(218.689 431.825)">
            <path id="path252" d="M-85.67 7.13c.59 1.12 1.5 2.4 2.86 3.51.27 1.12.37 2.26.37 3.34-.57.24-1.15.47-1.74.69-.62-1.3-1.34-2.05-1.34-2.05-.59.74-.73 1.83-.71 2.73-.22.06-.43.13-.65.19-.12-.24-.21-.48-.32-.72 1.17-2.13 2.08-4.84 1.53-7.69" class="st0"/>
          </g>
          <g id="g254" transform="translate(221.423 426.81)">
            <path id="path256" d="M-86.83 9.24c1.13-.18 2.5-.56 3.91-1.35 3.87.41 7.15 2.89 7.87 3.48V6.85l4 1.21a36.39 36.39 0 0 1-3.94 4.3h.01l-.06.06h-.01v-.99c-3.6-1.79-7.02-.23-7.02-.23.88 1.63 3.72 2 3.72 2-.58.15-1.13.24-1.67.31-1.55-1.98-3.8-3.91-6.81-4.27" class="st0"/>
          </g>
          <g id="g258" transform="translate(213.19 424.904)">
            <path id="path260" d="M-83.35 10.05c-1.36-.59-3.31-1.1-5.62-.84-2.91-2.73-4.19-6.6-4.19-6.6 2.17 3.58 5.96 4.02 5.96 4.02.05-1.88-2.18-3.68-2.18-3.68.91.28 1.71.63 2.43 1.04.49 2.19 1.52 4.49 3.6 6.06" class="st0"/>
          </g>
          <g id="g262" transform="translate(216.639 382.243)">
            <path id="path264" d="M-84.81 28.06c1.38-1.08-.78-3.25-3.36-5.08 2.55 1.17 5.17 1.92 5.92.52.84-1.56-2.02-2.61-5.12-3.18 2.81-.02 5.52-.45 5.65-2.02.15-1.77-2.89-1.51-5.97-.72 2.58-1.2 4.89-2.73 4.39-4.21-.57-1.67-3.26-.14-5.78 1.87 1.89-2.18 3.41-4.54 2.35-5.66-1.19-1.26-3.06 1.25-4.57 4.13.87-2.77 1.33-5.54-.09-6.12-1.59-.64-2.31 2.42-2.56 5.66-.3-2.87-.99-5.58-2.52-5.49-1.72.09-1.16 3.16-.09 6.2-1.42-2.47-3.13-4.63-4.51-3.9-1.55.81.19 3.35 2.39 5.65-2.29-1.64-4.72-2.87-5.7-1.63-1.1 1.38 1.51 2.95 4.45 4.11-2.76-.52-5.48-.6-5.89.93-.46 1.71 2.57 2.03 5.73 1.84-2.74.7-5.28 1.77-5.05 3.33.26 1.75 3.17.76 5.99-.75-2.24 1.79-4.15 3.83-3.31 5.14.76 1.19 2.4.02 4.06-1.82-.96 1.93-1.42 3.7-.45 4.41 1.4 1.01 2.8-1.8 3.78-4.91-.37 2.88-.32 5.68 1.18 5.98 1.69.33 1.85-2.81 1.52-6.03.8 2.76 1.96 5.28 3.46 4.91 1.68-.41.58-3.32-1.01-6.1 1.81 2.11 3.88 3.9 5.11 2.94m4.03-7.14a.292.292 0 0 1-.02-.09c-.14 0-.27.01-.41.01.14.02.28.05.43.08m.41-5.85a5.78 5.78 0 0 1-.24-.25c-.14.07-.27.14-.41.21.01.06.03.13.04.19.21-.06.41-.11.61-.15m-2.9-5.86c-.43.53-.87 1.06-1.33 1.59.47-.38.94-.74 1.42-1.09l-.09-.5m-42.75 9.2c1.84 1.81 3.22 3.63 4.26 5.43.84-.27 1.71-.49 2.58-.67-3.44-6.79-6.84-4.76-6.84-4.76m.51-1.89c.37-.46 1.74-1.87 3.77-.21 0 0-2.29-2.68-3.8.21-.53.02-1.11.13-1.74.34 0 0 3.77-.77 6.81 3.16.01 0-1.43-3.65-5.04-3.5m41.15 36.11c.21-1.14.35-2.95-.12-4.98.46-1.07 1.08-2.04 1.74-2.9-.33-.91-.7-1.81-1.11-2.68-.14.07-.29.13-.46.17-2.95.73-5.24-4.23-6.83-9.67.66 6.35.34 12.52-2.98 11.88-2.96-.58-3.05-6.11-2.32-11.77-1.93 6.12-4.69 11.66-7.44 9.66-1.93-1.4-1.02-4.88.87-8.68-3.27 3.64-6.5 5.94-7.99 3.59-1.64-2.58 2.11-6.6 6.53-10.13-5.56 2.97-11.29 4.92-11.81 1.48-.31-2.07 1.87-3.71 4.98-4.98-2.51-.1-5.06.1-7.6.61-.78.16-1.55.36-2.31.59 3.61 7.09 1.89 13.62.49 16.97.87-.43 1.8-.76 2.78-.96 7.6-1.54 14.65 3.55 16.32 11.25.39-1.48 1.67-4.66 5.32-3.98 0 0-.11 4.27-5.18 4.68.04.22.08.44.11.66 1.14-.52 3.1-.99 4.4 1.13 0 0-1.88 1.77-4.28.22.22 4.57-1.49 8.26-2.8 10.37-.36-.1-.73-.21-1.09-.32 2.37-3.69 3.26-8.08 2.5-12.39-1.27-7.24-8.04-11.96-15.1-10.53-1.41.29-2.7.86-3.82 1.64-.2.37-.33.57-.33.57-.09-.04-.16-.08-.24-.12a10.89 10.89 0 0 0-3.36 4.59c-.23-.39-.45-.79-.67-1.2.7-1.51 1.72-2.84 2.96-3.94-3.06-1.66-5.06-3.6-6.37-5.51-.12-.58-.22-1.16-.32-1.74.95-.44 1.63-1.51 2.03-2.31 1.07 2.46 2.69 5.04 5.11 7.6 0 0-2.24-4.3-3.98-9.62 1.13 1.24 3.16 2.63 6.78 3.31 0 0-5.17-1.61-7.32-5.06-.25-.88-.49-1.78-.7-2.69 1.22 1.55 3.69 4.23 6.67 4.88 0 0-4.64-2.03-7.08-6.92-.32-1.91-.46-3.79-.31-5.51 1.16-3.7 2.91-7.18 5.17-10.31 3.55-3.5 6.13-5.09 6.13-5.09-6.03 5.68-2.78 15.84-1.72 18.64h.01c3.51-.71 6.98-.82 10.34-.42.79-.24 1.59-.47 2.42-.68-6.22.38-12.18-.24-11.28-3.62.8-3.01 6.18-2.85 11.61-1.83-5.77-2.27-10.92-5.36-8.76-8.09 1.93-2.43 6.72-.01 11.24 3.21-4.32-4.53-7.75-9.53-4.7-11.13 2.71-1.42 6.09 2.83 8.89 7.69-2.11-5.98-3.21-12.03.18-12.22 3.02-.16 4.38 5.17 4.97 10.83.48-6.39 1.9-12.42 5.04-11.15 2.8 1.12 1.9 6.6.18 12.05C-87.56 5.09-86 2.59-84.49.94c-.18-1.6-.34-3.22-.44-4.83.38.11.76.22 1.13.34.08 1.17.19 2.35.32 3.52.47-.39.93-.67 1.37-.83-.37-.35-.68-.84-.85-1.56 0 0 2.59-1.16 4.15 2.11 0 0-.43.13-1 .16.7.92.66 2.19.12 3.65 0 .27-.1.51-.28.69-.55 1.2-1.38 2.51-2.37 3.84.05.32.11.64.17.96 4.15-2.94 8.03-4.6 8.97-1.86.78 2.27-1.81 4.6-5.4 6.63.3.18.6.44.89.8 2.45-.39 4.62-.46 6.01.03.21-.56.46-1.17.77-1.82-1.04-1.36-1.15-3.32-.13-4.85.37-.56.77-.96 1.17-1.25-.01-.03-.03-.05-.04-.08-.13-.48.14-.99.61-1.12.09-.02.17-.03.26-.03.2.2.39.41.59.62h.01c.05.05.1.11.15.16.04.04.08.08.12.13v.01c.31.33.61.66.9 1.01.24.28.47.56.7.84l-.01.01c.17.21.35.42.52.64a6.324 6.324 0 0 0-.62 5.32c-1.11.33-2.33.18-3.35-.53l-.06-.06c-.25.55-.45 1.07-.62 1.54.48.41.73.97.67 1.74-.23 2.82-4.65 3.78-9.6 3.95.03.13.06.25.09.36 5.43 1.19 9.97 3.14 8.46 5.94-1.47 2.75-6.63 1.28-11.65-1.03 5.07 3.62 9.34 7.88 6.62 10.02-2.42 1.91-6.51-1.62-10.14-5.86 2.56 4.45 4.46 9.06 3.3 11.07.39.81.75 1.63 1.07 2.48 1.82-2.02 3.69-3.18 3.69-3.18-3.03 2.95-2.77 6.87-2.77 6.87 1.81-.35 3.12-2.99 3.12-2.99-.07.64-.18 1.24-.32 1.81-2.51 1.06-5.11 2.96-6.17 6.32" class="st0"/>
          </g>
          <g id="g266" transform="translate(237.726 424.013)">
            <path id="path268" d="M-93.71 10.42c-.32-.22-.4-.67-.18-1.01.22-.33.66-.42.98-.2.32.22.4.67.18 1.01-.22.34-.66.43-.98.2" class="st0"/>
          </g>
          <g id="g270" transform="translate(191.468 438.362)">
            <path id="path272" d="M-74.18 4.37c.43.3.53.9.24 1.34-.3.45-.89.56-1.31.27-.43-.3-.53-.9-.24-1.34.3-.45.88-.57 1.31-.27" class="st0"/>
          </g>
          <g id="g274" transform="translate(247.181 422.53)">
            <path id="path276" d="M-97.7 11.05c-.43-.3-.53-.9-.24-1.34.3-.45.88-.57 1.31-.27.43.29.53.9.24 1.34-.3.45-.88.57-1.31.27" class="st0"/>
          </g>
          <g id="g278" transform="translate(178.684 417.839)">
            <path id="path280" d="M-68.79 13.03a.884.884 0 0 0-1.24.25c-.28.42-.18.99.22 1.28.41.28.97.17 1.25-.25.28-.42.18-1-.23-1.28m2.15.75c.1 1.78-1.32 1.63-1.46 1.62-.13.48-.51.88-1.01.99-.7.15-1.37-.3-1.53-1-.68.11-1.33-.34-1.47-1.05-.13-.71.31-1.41 1-1.59-.03-.08-.37-1.46.97-1.85.96-.29 1.02.1 1.31.51.12-.07 1.35-.67 1.92.89.09.26.02.55-.08.79.17.18.34.41.35.69" class="st0"/>
          </g>
        </g>
      </g>
    </g>
  </g>
</svg>
